<svg 
    xmlns="http://www.w3.org/2000/svg" 
    version="1.1" 
    xmlns:xlink="http://www.w3.org/1999/xlink" 
    width="128" 
    height="128"  
    viewBox="0 0 1500 1500">
    <!-- Background with rounded corners -->
    <rect 
        width="1500" 
        height="1500" 
        x="0" 
        y="0" 
        id="background" 
        stroke="transparent" 
        fill="#d94e28" 
        rx="750" 
        ry="750">
    </rect>
    <svg xml:space="preserve" width="1000" height="1000" data-version="2" data-id="lg_Bytowfy3AApqBZyGRE" viewBox="0 0 326 349" x="250" y="250">
        <rect width="100%" height="100%" fill="transparent"></rect>
        <path fill="#efefef" d="M163 3.508a160.172 160.172 0 1 0 0 320.344 160.172 160.172 0 1 0 0-320.344"></path>
        <rect width="232" height="335.61" x="-116" y="-167.805" fill="none" rx="0" ry="0" transform="translate(160.51 172.01)"></rect>
        <path fill="#d94e28" d="M259.47 236.19q-.87 7.54-2.47 14.79t-3.92 12.9q-2.32 5.66-5.94 9-3.63 3.33-8.27 3.33t-8.41-7.11q-3.77-7.1-7.1-18.85-3.34-11.74-6.1-26.54-2.75-14.79-4.93-30.02-2.17-15.22-3.62-29.72-1.45-14.51-2.32-25.24-1.74 11.02-4.06 24.66-2.32 13.63-5.51 27.69-3.19 14.07-6.96 27.56-3.77 13.48-8.13 24.07-4.35 10.59-9.28 16.97t-10.44 6.38q-4.93 0-9.86-6.67t-9.57-17.55-8.7-24.22-7.54-26.83q-3.48-13.48-6.09-25.52t-4.06-20.16q0 6.09-.15 13.49-.14 7.4-.14 10.59 0 1.45-.15 9.57-.14 8.12-1.01 19.43t-2.61 24.22-5.08 23.93-8.27 18.56-12.18 8.12q-5.8-2.61-9.71-8.85-3.92-6.23-6.53-14.64t-4.06-17.99q-1.45-9.57-2.32-18.7-.87-9.14-1.02-16.97-.14-7.83-.14-12.76 0-8.7 1.01-21.9 1.02-13.2 3.34-27.7t6.09-29 9.14-25.96q5.36-11.46 12.47-18.71 7.1-7.25 16.39-7.25 4.35 0 9.28 4.93t9.86 12.91q4.93 7.97 9.57 17.84 4.64 9.86 8.85 19.86 4.2 10.01 7.39 19.15 3.19 9.13 5.22 15.51 2.32-6.96 5.8-16.24t7.69-19.29q4.2-10 9.28-19.72t10.59-17.4q5.51-7.69 11.16-12.47 5.66-4.79 11.46-4.79 10.15 0 17.4 7.54T246.99 80t7.83 26.97q2.91 14.94 4.5 29.59 1.6 14.64 2.03 27.41.44 12.76.44 20.59v8.7q0 5.51-.15 12.47-.14 6.96-.72 14.79t-1.45 15.67" paint-order="stroke"></path>
    </svg>
</svg>
